<svg width="280" height="280" viewBox="0 0 280 280" fill="none" xmlns="http://www.w3.org/2000/svg">
<circle cx="140" cy="140" r="140" fill="url(#paint0_radial)"/>
<path d="M163.635 144.746V62H171.063V144.746C171.063 152.587 168.037 159.328 161.984 164.968C156 170.608 148.778 173.429 140.317 173.429C131.857 173.429 124.601 170.608 118.548 164.968C112.563 159.328 109.571 152.587 109.571 144.746V62H117V144.746C117 150.593 119.27 155.614 123.81 159.81C128.418 163.937 133.921 166 140.317 166C146.714 166 152.183 163.937 156.722 159.81C161.331 155.614 163.635 150.593 163.635 144.746ZM178.492 144.746V62H185.921V144.746C185.921 156.783 181.45 167.066 172.508 175.595C163.566 184.056 152.836 188.286 140.317 188.286C127.799 188.286 117.069 184.056 108.127 175.595C99.1852 167.066 94.7143 156.783 94.7143 144.746V62H102.143V144.746C102.143 154.72 105.857 163.249 113.286 170.333C120.783 177.349 129.794 180.857 140.317 180.857C150.772 180.857 159.749 177.349 167.246 170.333C174.743 163.249 178.492 154.72 178.492 144.746ZM193.349 144.746V62H200.778V144.746C200.778 155.27 198.061 165.037 192.627 174.048C187.193 182.989 179.833 190.074 170.548 195.302C161.262 200.529 151.185 203.143 140.317 203.143C129.45 203.143 119.373 200.529 110.087 195.302C100.802 190.074 93.4418 182.989 88.0079 174.048C82.5741 165.037 79.8571 155.27 79.8571 144.746V62H87.2857V144.746C87.2857 153.894 89.6587 162.389 94.4048 170.23C99.1508 178.071 105.582 184.296 113.698 188.905C121.884 193.444 130.757 195.714 140.317 195.714C149.878 195.714 158.717 193.444 166.833 188.905C175.019 184.296 181.484 178.071 186.23 170.23C190.976 162.389 193.349 153.894 193.349 144.746ZM208.206 144.746V62H215.635V144.746C215.635 154.651 213.64 164.143 209.651 173.222C205.661 182.233 200.296 190.005 193.556 196.54C186.815 203.074 178.802 208.267 169.516 212.119C160.23 216.04 150.497 218 140.317 218C130.138 218 120.405 216.04 111.119 212.119C101.833 208.267 93.8201 203.074 87.0794 196.54C80.3386 190.005 74.9735 182.233 70.9841 173.222C66.9947 164.143 65 154.651 65 144.746V62H72.4286V144.746C72.4286 156.577 75.455 167.548 81.5079 177.659C87.6296 187.77 95.8836 195.783 106.27 201.698C116.725 207.614 128.074 210.571 140.317 210.571C152.561 210.571 163.876 207.614 174.262 201.698C184.717 195.783 192.971 187.77 199.024 177.659C205.145 167.548 208.206 156.577 208.206 144.746Z" fill="white"/>
<defs>
<radialGradient id="paint0_radial" cx="0" cy="0" r="1" gradientUnits="userSpaceOnUse" gradientTransform="translate(7.00002 -43.5) rotate(55.6712) scale(410.504)">
<stop stop-color="#E1D3C5"/>
<stop offset="1" stop-color="#9F827C"/>
</radialGradient>
</defs>
</svg>
