<svg width="280" height="280" viewBox="0 0 280 280" fill="none" xmlns="http://www.w3.org/2000/svg">
<circle cx="140" cy="140" r="140" fill="url(#paint0_radial)"/>
<path d="M174.783 142.92L168 131.71V62H174.783V142.92ZM188.348 165.152L181.565 153.754V62H188.348V165.152ZM201.913 187.667L195.13 176.174V62H201.913V187.667ZM104.696 137.08L111.478 148.29V218H104.696V137.08ZM91.1304 114.848L97.913 126.246V218H91.1304V114.848ZM77.5652 92.3333L84.3478 103.826V218H77.5652V92.3333ZM79.9203 62H87.8333L183.732 218H175.819L79.9203 62ZM95.9348 62H103.942L199.746 218H191.645L95.9348 62ZM111.855 62H119.768L208.696 206.978V62H215.478V218C215.478 218 212.809 218 207.471 218L111.855 62ZM70.7826 73.0217V218H64V62C64 62 66.7005 62 72.1014 62L167.717 218H159.899L70.7826 73.0217Z" fill="white"/>
<defs>
<radialGradient id="paint0_radial" cx="0" cy="0" r="1" gradientUnits="userSpaceOnUse" gradientTransform="translate(7.00002 -43.5) rotate(55.6712) scale(410.504)">
<stop stop-color="#D3E1C5"/>
<stop offset="1" stop-color="#80A35E"/>
</radialGradient>
</defs>
</svg>
