<svg width="280" height="280" viewBox="0 0 280 280" fill="none" xmlns="http://www.w3.org/2000/svg">
<circle cx="140" cy="140" r="140" fill="url(#paint0_radial)"/>
<path d="M183.605 136.793H189.884V211.76H183.605V136.793ZM208.721 136.793H215V211.76H208.721V136.793ZM196.163 136.793H202.442V211.76H196.163V136.793ZM177.326 136.793V211.76C166.279 215.92 154.826 218 142.965 218C132.674 218 122.82 216.122 113.401 212.367C103.983 208.611 95.6977 203.411 88.5465 196.767C81.3953 190.064 75.6686 181.802 71.3663 171.98C67.1221 162.1 65 151.44 65 140C65 129.427 67.064 119.344 71.1919 109.753C75.3779 100.104 80.9593 91.8133 87.936 84.88C94.9709 77.8889 103.314 72.3422 112.965 68.24C122.674 64.08 132.849 62 143.488 62C156.744 62 169.07 65.0622 180.465 71.1867C191.86 77.3111 201.163 85.6311 208.372 96.1467L203.14 99.5267C196.512 89.8778 187.936 82.2511 177.413 76.6467C166.948 71.0422 155.64 68.24 143.488 68.24C133.721 68.24 124.36 70.1467 115.407 73.96C106.512 77.7156 98.8372 82.8 92.3837 89.2133C85.9302 95.6267 80.7849 103.282 76.9477 112.18C73.1686 121.02 71.2791 130.293 71.2791 140C71.2791 150.458 73.2267 160.222 77.1221 169.293C81.0756 178.364 86.3081 185.962 92.8198 192.087C99.3895 198.211 107.006 203.036 115.669 206.56C124.331 210.027 133.343 211.76 142.703 211.76C152.529 211.76 161.977 210.229 171.047 207.167V201.187C162.384 204.076 153.285 205.52 143.75 205.52C136.831 205.52 130.087 204.567 123.517 202.66C117.006 200.696 110.959 197.836 105.378 194.08C99.8547 190.267 95 185.76 90.814 180.56C86.686 175.302 83.4302 169.207 81.0465 162.273C78.7209 155.282 77.5581 147.858 77.5581 140C77.5581 128.156 80.4942 117.207 86.3663 107.153C92.2965 97.1 100.32 89.1556 110.436 83.32C120.552 77.4267 131.57 74.48 143.488 74.48C154.651 74.48 165.029 77.08 174.622 82.28C184.215 87.4222 192.035 94.4133 198.081 103.253L192.849 106.633C187.384 98.66 180.291 92.3622 171.57 87.74C162.907 83.06 153.547 80.72 143.488 80.72C135.407 80.72 127.674 82.28 120.291 85.4C112.907 88.52 106.541 92.7378 101.192 98.0533C95.9012 103.311 91.686 109.609 88.5465 116.947C85.407 124.284 83.8372 131.969 83.8372 140C83.8372 147.222 84.8837 154.011 86.9767 160.367C89.1279 166.664 92.064 172.182 95.7849 176.92C99.564 181.6 103.953 185.644 108.953 189.053C113.953 192.404 119.39 194.947 125.262 196.68C131.192 198.413 137.267 199.28 143.488 199.28C153.14 199.28 162.326 197.662 171.047 194.427V188.187C162.442 191.48 153.459 193.127 144.099 193.127C137.006 193.127 130.233 191.942 123.779 189.573C117.326 187.147 111.57 183.738 106.512 179.347C101.512 174.956 97.5291 169.351 94.564 162.533C91.5988 155.716 90.1163 148.204 90.1163 140C90.1163 130.409 92.5 121.54 97.2674 113.393C102.035 105.247 108.517 98.8044 116.715 94.0667C124.913 89.3289 133.837 86.96 143.488 86.96C152.5 86.96 160.872 89.04 168.605 93.2C176.395 97.36 182.733 103.022 187.616 110.187L182.384 113.567C178.081 107.327 172.5 102.387 165.64 98.7467C158.837 95.0489 151.453 93.2 143.488 93.2C134.942 93.2 127.064 95.3089 119.855 99.5267C112.645 103.687 106.919 109.349 102.674 116.513C98.4884 123.678 96.3953 131.507 96.3953 140C96.3953 145.893 97.2384 151.382 98.9244 156.467C100.61 161.551 102.936 165.942 105.901 169.64C108.866 173.338 112.326 176.487 116.279 179.087C120.291 181.687 124.593 183.651 129.186 184.98C133.779 186.251 138.547 186.887 143.488 186.887C153.314 186.887 162.5 184.951 171.047 181.08V175.1C162.791 178.74 153.866 180.56 144.273 180.56C138.75 180.56 133.547 179.722 128.663 178.047C123.779 176.371 119.36 173.916 115.407 170.68C111.512 167.444 108.401 163.198 106.076 157.94C103.808 152.624 102.674 146.644 102.674 140C102.674 134.511 103.75 129.282 105.901 124.313C108.052 119.287 110.959 114.953 114.622 111.313C118.285 107.673 122.616 104.784 127.616 102.647C132.674 100.509 137.965 99.44 143.488 99.44C150.407 99.44 156.831 101.058 162.762 104.293C168.692 107.471 173.517 111.804 177.238 117.293L172.093 120.673C168.953 116.051 164.855 112.411 159.797 109.753C154.797 107.038 149.36 105.68 143.488 105.68C133.953 105.68 125.814 109.031 119.07 115.733C112.326 122.436 108.953 130.524 108.953 140C108.953 145.836 109.913 151.007 111.831 155.513C113.75 159.962 116.366 163.544 119.68 166.26C123.052 168.918 126.773 170.94 130.843 172.327C134.971 173.656 139.39 174.32 144.099 174.32C153.75 174.32 162.733 172.327 171.047 168.34V136.793H177.326Z" fill="white"/>
<defs>
<radialGradient id="paint0_radial" cx="0" cy="0" r="1" gradientUnits="userSpaceOnUse" gradientTransform="translate(7.00002 -43.5) rotate(55.6712) scale(410.504)">
<stop stop-color="#C5DAE1"/>
<stop offset="1" stop-color="#7C979F"/>
</radialGradient>
</defs>
</svg>
