<svg xmlns="http://www.w3.org/2000/svg" viewBox="0 0 280 280"><defs><style>.cls-1{fill:#ced4da;}</style></defs><g id="G"><path class="cls-1" d="M206.58,134.24V268.8A171.52,171.52,0,0,1,145.29,280a142.31,142.31,0,0,1-97.07-38.19q-19.12-18-30.56-44.49A143.11,143.11,0,0,1,6.22,140,136.46,136.46,0,0,1,17.34,85.63,138.12,138.12,0,0,1,91.85,11.12a139.41,139.41,0,0,1,120.33,5.37A139.94,139.94,0,0,1,262,61.29l-9.34,6.07a127.91,127.91,0,0,0-45.81-41.07,128.57,128.57,0,0,0-110.6-4.9A126.37,126.37,0,0,0,27.61,90a126.19,126.19,0,0,0-10.19,50,131.69,131.69,0,0,0,10.5,52.58q10.5,24.42,28,40.91a130.07,130.07,0,0,0,40.68,25.9,126.85,126.85,0,0,0,48.22,9.41,156.26,156.26,0,0,0,50.56-8.24V249.82a152,152,0,0,1-48.69,7.78,125.61,125.61,0,0,1-36-5.21A114.61,114.61,0,0,1,78.32,237a117.94,117.94,0,0,1-26-24.27A107.81,107.81,0,0,1,34.92,179.9a124.45,124.45,0,0,1-6.3-39.9A114.94,114.94,0,0,1,44.41,81,117.12,117.12,0,0,1,87.27,38.19a114.88,114.88,0,0,1,59-15.79,114.64,114.64,0,0,1,55.53,13.92A117.65,117.65,0,0,1,243.6,74l-9.33,6.07a105.87,105.87,0,0,0-37.88-34A106.49,106.49,0,0,0,104.84,42,103.87,103.87,0,0,0,48.22,98.62,104.7,104.7,0,0,0,39.82,140a114.55,114.55,0,0,0,5.68,36.48,96.52,96.52,0,0,0,15.71,29.71A105.1,105.1,0,0,0,84.62,228a104,104,0,0,0,29.17,13.76,113.8,113.8,0,0,0,32.43,4.67,139.39,139.39,0,0,0,49.16-8.71v-11.2a132.63,132.63,0,0,1-48.07,8.87,102.71,102.71,0,0,1-36.24-6.46,98,98,0,0,1-30.73-18.28Q66.89,198.8,59,180.44A100.8,100.8,0,0,1,51,140a95,95,0,0,1,95.2-95.2A93,93,0,0,1,191.1,56a94.34,94.34,0,0,1,33.83,30.49l-9.33,6.07a83.94,83.94,0,0,0-29.79-26.68,84.33,84.33,0,0,0-81.74,1.4A84,84,0,0,0,73.5,97.84,82,82,0,0,0,62.22,140a93.85,93.85,0,0,0,4.51,29.56A75.4,75.4,0,0,0,79.18,193.2a79.2,79.2,0,0,0,18.59,17,83.25,83.25,0,0,0,22.94,10.5,92.81,92.81,0,0,0,25.51,3.5,117.11,117.11,0,0,0,49.16-10.43V203a116.51,116.51,0,0,1-47.76,9.8,84.64,84.64,0,0,1-27.84-4.51,74.86,74.86,0,0,1-23.57-13.22,60.1,60.1,0,0,1-16.64-22.95Q73.42,157.89,73.42,140a71,71,0,0,1,5.76-28.23A71.8,71.8,0,0,1,118,73a72.47,72.47,0,0,1,62.61,2.87,72.39,72.39,0,0,1,25.82,23.41l-9.18,6.07a61.26,61.26,0,0,0-51-26.91A61.61,61.61,0,0,0,84.62,140q0,15.72,5.13,27.77a49.06,49.06,0,0,0,14.08,19.29A63.26,63.26,0,0,0,123.74,198a74.28,74.28,0,0,0,23.57,3.65,109.25,109.25,0,0,0,48.07-10.73V134.24Zm11.2,0H229V268.8h-11.2Zm22.4,0h11.2V268.8h-11.2Zm22.4,0h11.2V268.8h-11.2Z"/></g></svg>