<svg xmlns="http://www.w3.org/2000/svg" viewBox="0 0 280 280"><defs><style>.cls-1{fill:#ced4da;}</style></defs><g id="B"><path class="cls-1" d="M231.87,138.45l-.38-.2q22-21.39,22-52.11,0-29.16-21.68-50.65T180.54,14h-154V280h-14V0h168a84,84,0,0,1,43.07,11.76,88.77,88.77,0,0,1,32,31.7,82.12,82.12,0,0,1,11.86,42.68q0,31.11-16.72,53.47,16.71,23.14,16.72,50.95,0,26.64-12.06,46.95t-31.59,30.63a91.32,91.32,0,0,1-43.27,10.3H92.07v-14h88.47q29.94,0,51.43-21.29t21.49-52.59a69.39,69.39,0,0,0-6.22-28.39,79.11,79.11,0,0,0-15.56-23.53A.17.17,0,0,1,231.87,138.45Zm-51.33,98H92.07v14h88.47q24.11,0,41.52-17.2t17.4-42.68a57.84,57.84,0,0,0-8.65-30.43A60.16,60.16,0,0,0,208,138.06,58.67,58.67,0,0,0,230.81,117a56.6,56.6,0,0,0,8.65-30.82q0-23.34-17.6-40.74T180.54,28h-140V280h14V42h126q17.9,0,31.4,13.32t13.52,30.82q0,19.44-13.22,32a44.47,44.47,0,0,1-31.7,12.54H92.07v14h88.47q17.9,0,31.4,13.8t13.52,32.09q0,20.22-13.22,33.05A43.9,43.9,0,0,1,180.54,236.44Zm0-133.77H92.07v14h88.47q13,0,22-8.27t9-22.26q0-11.86-9.34-21T180.54,56h-112V280h14V70h98a16.5,16.5,0,0,1,11.77,5q5.15,5,5.15,11.18,0,8-4.86,12.25A17.6,17.6,0,0,1,180.54,102.67Zm0,105.77H92.07v14h88.47a30.49,30.49,0,0,0,21.88-8.65q9-8.65,9-23.23,0-12.65-9.34-22.27t-21.58-9.62H91.87v14h88.67q6.61,0,11.77,5.44a17.63,17.63,0,0,1,5.15,12.45q0,8.55-4.86,13.22A16.73,16.73,0,0,1,180.54,208.44Z"/></g></svg>