<svg xmlns="http://www.w3.org/2000/svg" viewBox="0 0 280 280"><defs><style>.cls-1{fill:#ced4da;}</style></defs><g id="N"><path class="cls-1" d="M16.23,19.78V280H4.06V0H18.6L190.22,280h-14ZM28.41,54.44,40.58,75.07V280H28.41ZM32.63,0H46.84L219,280h-14.2ZM52.75,94.85l12.18,20.46V280H52.75ZM61.38,0H75.75l172,280H233.16ZM77.1,134.76l12.17,20.12V280H77.1ZM90,0h14.2L263.77,260.22V0h12.17V280H261.57Zm113,145.24-12.18-20.12V0H202.9Zm24.34,39.9-12.17-20.45V0h12.17Zm24.35,40.41-12.17-20.62V0h12.17Z"/></g></svg>